<svg width="200" height="200" viewBox="0 0 200 200" fill="none" xmlns="http://www.w3.org/2000/svg">
<path d="M157.204 103.463C153.285 103.463 150.79 101.465 151.919 99.0255C152.928 96.8241 155.482 95.5368 159.462 95.5368C162.55 95.5026 164.51 96.3831 164.688 97.9083H181.199C182.744 91.3703 172.587 87 159.462 87C145.504 87 136.595 91.7092 134.219 98.8561C131.488 107.054 142.118 112 154.354 112C169.855 112 177.517 107.664 180.487 101.092H163.678C162.016 102.752 160.234 103.463 157.204 103.463ZM87.9407 87.644L80.2194 111.356H64.4207L69.4695 95.7062H69.1726L57.947 111.356H39.951L39.416 95.7062H39.1192L34.0117 111.356H18.1538L25.8745 87.644H50.7009L51.5919 101.363H52.0078L61.3323 87.644H87.9407ZM128.398 111.356H112.302L102.74 99.568H102.443L98.5826 111.356H82.7839L90.5052 87.644H106.482L116.163 99.3985H116.4L120.261 87.644H136.119L128.398 111.356ZM10.3214 109.804C6.8083 109.776 5.4372 108.621 6.20807 106.339L10.8722 92.6512C11.6519 90.3751 13.8114 89.2236 17.3514 89.1956L16.6793 91.1414C15.6845 91.1579 15.0618 91.5328 14.8105 92.2655L9.87751 106.734C9.63555 107.461 10.0075 107.833 10.9935 107.85L10.3214 109.804ZM185.112 107.305C184.87 108.032 184.247 108.404 183.244 108.421L182.572 110.375C186.12 110.347 188.28 109.192 189.051 106.91L193.715 93.2215C194.494 90.9459 193.124 89.7945 189.602 89.7665L188.93 91.7123C189.924 91.7288 190.296 92.1037 190.045 92.8364L185.112 107.305Z" fill="#231916"/>
</svg>
