<?xml version="1.0" encoding="utf-8"?>
<svg viewBox="296.2141 411.457 223.9499 223.9507" width="223.95px" height="223.951px" preserveAspectRatio="none" xmlns="http://www.w3.org/2000/svg"><g id="g18" transform="matrix(1.3333332538604736, 0, 0, -1.3333332538604736, 518.792368166105, 456.03967323845427)"><path d="m 0,0 c -2.066,4.862 -7.086,8.612 -14.135,10.559 -6.986,1.93 -15.207,1.917 -23.878,-0.027 -1.66,-0.372 -3.405,0.092 -4.659,1.24 -1.436,1.316 -2.619,3.261 -3.977,5.492 -4.236,6.963 -10.036,16.162 -30.436,16.173 -13.043,0.006 -19.791,-5.812 -23.782,-10.649 -6.502,-7.882 -7.195,-17.737 -3.112,-24.695 4.736,-8.225 13.315,-17.769 7.822,-26.863 -0.99,-1.032 -1.96,-1.513 -3.01,-1.527 -2.646,0.011 -5.681,3.295 -8.894,6.772 -3.201,3.462 -6.828,7.386 -11.03,9.164 -13.872,5.87 -28.591,3.191 -38.412,-6.993 -11.716,-12.148 -12,-32.036 -3.7,-47.271 2.123,-3.637 9.221,-8.966 17.698,-8.994 1.989,-0.006 3.922,-0.722 5.461,-1.978 5.152,-4.205 5.187,-8.979 5.225,-14.376 0.043,-6.074 0.093,-12.96 8.424,-19.418 3.433,-2.605 7.535,-4.374 12.189,-5.26 1.341,-0.26 2.778,-0.548 4.235,-0.841 5.224,-1.05 10.626,-2.136 12.947,-2.177 0.357,-0.025 0.732,-0.047 1.117,-0.069 0.971,-0.055 2.032,-0.116 3.008,-0.251 1.784,-0.248 3.2,-1.559 3.705,-3.285 0.855,-2.927 2.701,-5.464 5.24,-7.138 2.119,-1.396 4.593,-2.114 7.176,-2.114 1.051,0 2.121,0.119 3.192,0.36 3.541,0.732 5.795,4.862 6.191,8.563 0.464,4.337 -1.374,7.822 -4.918,9.322 -4.955,2.097 -12.387,1.914 -18.943,1.752 -3.586,-0.088 -6.972,-0.172 -9.136,0.184 -3.385,0.557 -6.676,2.805 -8.383,5.727 -1.136,1.943 -2.126,5.123 -0.406,9.208 5.713,12.146 -2.062,17.665 -10.294,23.506 -5.875,4.169 -11.95,8.48 -14.406,15.613 -1.388,3.944 -1.402,9.296 6.361,12.37 6.341,2.021 13.132,-0.249 19.7,-2.444 8.097,-2.707 16.469,-5.507 23.797,-0.044 5.344,3.737 4.803,9.524 4.231,15.651 -0.73,7.81 -1.484,15.886 8.32,22.469 5.964,3.629 12.668,4.651 17.932,2.735 3.716,-1.353 6.34,-4.05 7.388,-7.598 1.541,-5.052 -0.36,-10.328 -2.372,-15.914 -2.188,-6.072 -4.45,-12.351 -2.375,-18.82 1.05,-3.257 3.156,-4.844 5.632,-4.252 4.125,0.991 6.483,6.678 5.912,11.074 -0.042,0.322 -0.075,0.645 -0.083,0.969 -10e-4,0.019 -0.002,0.037 -0.002,0.055 -0.253,6.046 9.738,11.44 17.033,15.378 l 1.592,0.862 C -3.196,-19.421 3.837,-9.029 0,0" style="fill:#231916;fill-opacity:1;fill-rule:nonzero;stroke:none" id="path20"/></g></svg>